:SAMPLES-PER-SECOND 30
:FULLY-SPECIFIED
:DEGREES
544
root  -3.73218 41.0176 0.808047 167.877 -85.9046 -166.445
RightUpLeg  2.43803 -1.19724 -1.57876
RightLeg  -5.78248 -16.2315 2.32505
RightFoot  3.30812 -0.415184 3.43115
RightToes  -3.1126e-008 1.75238e-005 3.56266e-009
Spine  9.53199 -0.00336811 -5.44523
Spine1  -14.5044 -0.662974 7.92863
HEad  7.03592 -4.30009 -1.50627
LeftShoulder1  0.433354 1.45909 -14.2566
LeftArm  -9.49237 -28.2853 -54.9029
LeftForeArm  49.0871 -71.5518 -28.9496
LeftHand  -0.667029 -4.20451 8.337
RightShoulder  0.54343 -1.18784 16.999
RightArm  -33.1218 -14.1193 34.0045
RightForeArm  73.9825 79.4006 67.1755
RightHand  -0.449954 8.05692 -4.24134
LeftUpLeg  3.06955 1.34071 2.5208
LeftLeg  -3.73912 21.4351 -1.50668
LeftFoot  0.250097 0.300064 -2.99125
LeftToes  4.78049e-008 1.46235e-008 1.34219e-009
545
root  -3.75903 41.0162 0.83928 166.53 -85.9122 -165.27
RightUpLeg  2.69836 -1.20853 -1.55332
RightLeg  -5.83898 -16.2354 2.34876
RightFoot  3.32114 -0.41608 3.44584
RightToes  -3.1126e-008 1.75238e-005 3.56266e-009
Spine  9.63944 -0.142263 -5.17517
Spine1  -14.3341 -0.807775 7.89755
HEad  7.01276 -4.3439 -1.74828
LeftShoulder1  0.379928 1.71304 -14.2787
LeftArm  -8.31326 -29.6032 -56.3515
LeftForeArm  50.444 -71.5382 -28.6541
LeftHand  -0.716227 -4.72046 8.4898
RightShoulder  0.540637 -1.18126 16.7899
RightArm  -31.8479 -16.3106 36.3702
RightForeArm  69.8954 79.088 64.0671
RightHand  -0.523783 8.4531 -4.76029
LeftUpLeg  3.22285 1.39008 2.56963
LeftLeg  -3.53356 21.2804 -1.40784
LeftFoot  0.0913944 0.300523 -3.05534
LeftToes  4.78049e-008 1.46235e-008 1.34219e-009
546
root  -3.7929 41.0157 0.858256 165.948 -86.0801 -164.686
RightUpLeg  2.78457 -1.23564 -1.58628
RightLeg  -5.87138 -16.3679 2.36013
RightFoot  3.26485 -0.414449 3.41748
RightToes  -3.1126e-008 1.75238e-005 3.56266e-009
Spine  9.63118 -0.356672 -4.82833
Spine1  -14.3051 -0.980495 7.41779
HEad  6.95906 -5.07476 -1.69413
LeftShoulder1  0.375533 1.7173 -14.0554
LeftArm  -6.28799 -30.9115 -57.9052
LeftForeArm  52.1823 -72.2323 -29.9054
LeftHand  -0.591914 -4.24788 7.40414
RightShoulder  0.538321 -1.20119 16.9051
RightArm  -30.7164 -18.485 38.4151
RightForeArm  70.1014 79.031 62.479
RightHand  -0.447486 8.34581 -4.15151
LeftUpLeg  3.23056 1.39531 2.53453
LeftLeg  -3.4879 21.1573 -1.40653
LeftFoot  0.0596206 0.28459 -2.8603
LeftToes  4.78049e-008 1.46235e-008 1.34219e-009
547
root  -3.81792 41.0156 0.866062 165.301 -86.3053 -163.898
RightUpLeg  2.65318 -1.223 -1.59391
RightLeg  -5.79129 -16.6445 2.33686
RightFoot  3.23641 -0.421931 3.52734
RightToes  -3.1126e-008 1.75238e-005 3.56266e-009
Spine  9.25132 -0.623289 -5.09423
Spine1  -13.7465 -1.29079 7.69625
HEad  6.58263 -5.08238 -1.78826
LeftShoulder1  0.283778 2.1436 -13.8865
LeftArm  -3.52487 -32.3521 -60.1014
LeftForeArm  54.8651 -73.2276 -31.8705
LeftHand  -0.693411 -4.71502 8.25667
RightShoulder  0.528824 -1.26941 17.2165
RightArm  -28.7616 -20.0714 39.5057
RightForeArm  71.6868 79.1111 62.4226
RightHand  -0.492202 8.65656 -4.44153
LeftUpLeg  3.1338 1.39155 2.52574
LeftLeg  -3.60881 20.9683 -1.48802
LeftFoot  0.0965662 0.275608 -2.76027
LeftToes  4.78049e-008 1.46235e-008 1.34219e-009
548
root  -3.84305 41.0158 0.868606 164.118 -86.5884 -162.668
RightUpLeg  2.6896 -1.19989 -1.58437
RightLeg  -5.81776 -16.9463 2.32634
RightFoot  3.19545 -0.423458 3.54225
RightToes  -3.1126e-008 1.75238e-005 3.56266e-009
Spine  9.43476 -0.66811 -5.17017
Spine1  -14.0359 -1.32233 7.66261
HEad  6.60607 -5.75095 -1.55358
LeftShoulder1  0.281222 2.14731 -13.743
LeftArm  0.292124 -34.4386 -63.2838
LeftForeArm  56.1254 -73.7341 -33.0424
LeftHand  -0.652844 -4.67622 7.81318
RightShoulder  0.464938 -1.47669 16.4526
RightArm  -26.5256 -22.3779 41.313
RightForeArm  72.8231 79.2153 63.5136
RightHand  -0.508505 8.41914 -4.64459
LeftUpLeg  3.12336 1.35915 2.51634
LeftLeg  -3.66515 20.664 -1.47835
LeftFoot  0.108244 0.273684 -2.75323
LeftToes  4.78049e-008 1.46235e-008 1.34219e-009
549
root  -3.88301 41.0166 0.862228 161.201 -86.9392 -159.817
RightUpLeg  2.91398 -1.12038 -1.5024
RightLeg  -5.90412 -17.3358 2.31176
RightFoot  3.19494 -0.429107 3.61921
RightToes  -3.1126e-008 1.75238e-005 3.56266e-009
Spine  9.49859 -0.680935 -5.27377
Spine1  -14.1232 -1.33241 7.60258
HEad  7.08949 -7.18846 -1.15962
LeftShoulder1  0.34505 1.83377 -13.6641
LeftArm  5.32166 -37.1211 -66.2215
LeftForeArm  56.7572 -73.9368 -33.5089
LeftHand  -0.600074 -4.81741 7.1087
RightShoulder  0.477013 -1.38134 15.9338
RightArm  -23.8291 -25.1026 42.4822
RightForeArm  75.9141 79.4542 65.7407
RightHand  -0.517923 8.19724 -4.79033
LeftUpLeg  3.23232 1.41277 2.5822
LeftLeg  -3.72575 20.3099 -1.48309
LeftFoot  0.10444 0.272762 -2.75716
LeftToes  4.78049e-008 1.46235e-008 1.34219e-009
550
root  -3.91045 41.0194 0.852344 159.134 -87.1971 -157.701
RightUpLeg  2.89073 -1.16936 -1.51987
RightLeg  -5.79186 -17.5006 2.34818
RightFoot  3.14423 -0.43294 3.66674
RightToes  -3.1126e-008 1.75238e-005 3.56266e-009
Spine  9.49221 -0.713065 -5.76346
Spine1  -14.2231 -1.3906 7.89078
HEad  7.03688 -8.32327 -1.07958
LeftShoulder1  0.405656 1.53493 -13.6012
LeftArm  11.9353 -40.4431 -69.7204
LeftForeArm  55.4925 -73.6316 -32.8992
LeftHand  -0.697885 -5.15336 7.98602
RightShoulder  0.518939 -1.16234 15.5529
RightArm  -21.0136 -27.0077 43.592
RightForeArm  76.1225 79.4383 64.9329
RightHand  -0.488471 8.49623 -4.45307
LeftUpLeg  3.18146 1.39956 2.61039
LeftLeg  -3.71889 20.0326 -1.449
LeftFoot  0.061753 0.282099 -2.91649
LeftToes  4.78049e-008 1.46235e-008 1.34219e-009
